<svg xmlns="http://www.w3.org/2000/svg" width="880" height="326" viewBox="0 0 880 326" role="img" aria-label="Coding rhythm by hour and weekday">
<style>text{font-family:ui-monospace,SFMono-Regular,Consolas,monospace;letter-spacing:0}</style>
<defs>
<linearGradient id="spectrum" gradientUnits="userSpaceOnUse" x1="20" y1="0" x2="860" y2="0"><stop stop-color="#20bcd4"/><stop offset=".5" stop-color="#a58af5"/><stop offset="1" stop-color="#f16ca6"/></linearGradient>
<filter id="glow" x="-10%" y="-200%" width="120%" height="500%"><feGaussianBlur stdDeviation="2"/></filter>
</defs>
<rect x="0.5" y="0.5" width="879" height="325" rx="8" fill="#ffffff" stroke="#d8dee4"/>
<text x="20" y="38" font-size="19" font-weight="600" fill="#1f2328" text-anchor="start" textLength="150.67" lengthAdjust="spacingAndGlyphs">Coding Rhythm</text>
<text x="20" y="58" font-size="11" font-weight="400" fill="#656d76" text-anchor="start" textLength="570.35" lengthAdjust="spacingAndGlyphs">1626 authored commits across 55 repositories - peak 16:00 - busiest Mon - Asia/Taipei</text>
<path d="M20 74H860" stroke="url(#spectrum)" stroke-width="3" opacity=".55" filter="url(#glow)"/>
<text x="20" y="100" font-size="10" font-weight="400" fill="#656d76" text-anchor="start" textLength="158.6" lengthAdjust="spacingAndGlyphs">HOURS OF DAY - ASIA/TAIPEI</text>
<rect x="26.65" y="155.02" width="21.70" height="16.98" rx="2" fill="url(#spectrum)" opacity="0.95"/>
<rect x="61.65" y="165.91" width="21.70" height="6.09" rx="2" fill="url(#spectrum)" opacity="0.95"/>
<rect x="96.65" y="169.12" width="21.70" height="2.88" rx="2" fill="url(#spectrum)" opacity="0.95"/>
<rect x="131.65" y="169.44" width="21.70" height="2.56" rx="2" fill="url(#spectrum)" opacity="0.95"/>
<rect x="166.65" y="170.50" width="21.70" height="1.50" rx="2" fill="url(#spectrum)" opacity="0.95"/>
<rect x="201.65" y="170.50" width="21.70" height="1.50" rx="2" fill="url(#spectrum)" opacity="0.95"/>
<rect x="236.65" y="170.08" width="21.70" height="1.92" rx="2" fill="url(#spectrum)" opacity="0.95"/>
<rect x="271.65" y="168.15" width="21.70" height="3.85" rx="2" fill="url(#spectrum)" opacity="0.95"/>
<rect x="306.65" y="166.55" width="21.70" height="5.45" rx="2" fill="url(#spectrum)" opacity="0.95"/>
<rect x="341.65" y="159.50" width="21.70" height="12.50" rx="2" fill="url(#spectrum)" opacity="0.95"/>
<rect x="376.65" y="141.24" width="21.70" height="30.76" rx="2" fill="url(#spectrum)" opacity="0.95"/>
<rect x="411.65" y="127.14" width="21.70" height="44.86" rx="2" fill="url(#spectrum)" opacity="0.95"/>
<rect x="446.65" y="135.79" width="21.70" height="36.21" rx="2" fill="url(#spectrum)" opacity="0.95"/>
<rect x="481.65" y="144.44" width="21.70" height="27.56" rx="2" fill="url(#spectrum)" opacity="0.95"/>
<rect x="516.65" y="116.88" width="21.70" height="55.12" rx="2" fill="url(#spectrum)" opacity="0.95"/>
<rect x="551.65" y="121.37" width="21.70" height="50.63" rx="2" fill="url(#spectrum)" opacity="0.95"/>
<rect x="586.65" y="114.00" width="21.70" height="58.00" rx="2" fill="url(#spectrum)" opacity="0.95"/>
<rect x="621.65" y="118.17" width="21.70" height="53.83" rx="2" fill="url(#spectrum)" opacity="0.95"/>
<rect x="656.65" y="138.03" width="21.70" height="33.97" rx="2" fill="url(#spectrum)" opacity="0.95"/>
<rect x="691.65" y="154.06" width="21.70" height="17.94" rx="2" fill="url(#spectrum)" opacity="0.95"/>
<rect x="726.65" y="163.03" width="21.70" height="8.97" rx="2" fill="url(#spectrum)" opacity="0.95"/>
<rect x="761.65" y="161.43" width="21.70" height="10.57" rx="2" fill="url(#spectrum)" opacity="0.95"/>
<rect x="796.65" y="153.41" width="21.70" height="18.59" rx="2" fill="url(#spectrum)" opacity="0.95"/>
<rect x="831.65" y="151.17" width="21.70" height="20.83" rx="2" fill="url(#spectrum)" opacity="0.95"/>
<text x="37.5" y="187" font-size="10" font-weight="400" fill="#656d76" text-anchor="middle" textLength="12.2" lengthAdjust="spacingAndGlyphs">00</text>
<text x="142.5" y="187" font-size="10" font-weight="400" fill="#656d76" text-anchor="middle" textLength="12.2" lengthAdjust="spacingAndGlyphs">03</text>
<text x="247.5" y="187" font-size="10" font-weight="400" fill="#656d76" text-anchor="middle" textLength="12.2" lengthAdjust="spacingAndGlyphs">06</text>
<text x="352.5" y="187" font-size="10" font-weight="400" fill="#656d76" text-anchor="middle" textLength="12.2" lengthAdjust="spacingAndGlyphs">09</text>
<text x="457.5" y="187" font-size="10" font-weight="400" fill="#656d76" text-anchor="middle" textLength="12.2" lengthAdjust="spacingAndGlyphs">12</text>
<text x="562.5" y="187" font-size="10" font-weight="400" fill="#656d76" text-anchor="middle" textLength="12.2" lengthAdjust="spacingAndGlyphs">15</text>
<text x="667.5" y="187" font-size="10" font-weight="400" fill="#656d76" text-anchor="middle" textLength="12.2" lengthAdjust="spacingAndGlyphs">18</text>
<text x="772.5" y="187" font-size="10" font-weight="400" fill="#656d76" text-anchor="middle" textLength="12.2" lengthAdjust="spacingAndGlyphs">21</text>
<text x="20" y="213" font-size="10" font-weight="400" fill="#656d76" text-anchor="start" textLength="73.2" lengthAdjust="spacingAndGlyphs">DAYS OF WEEK</text>
<rect x="42.80" y="227.00" width="74.40" height="48.00" rx="2" fill="url(#spectrum)" opacity="0.95"/>
<rect x="162.80" y="230.89" width="74.40" height="44.11" rx="2" fill="url(#spectrum)" opacity="0.95"/>
<rect x="282.80" y="243.77" width="74.40" height="31.23" rx="2" fill="url(#spectrum)" opacity="0.95"/>
<rect x="402.80" y="242.80" width="74.40" height="32.20" rx="2" fill="url(#spectrum)" opacity="0.95"/>
<rect x="522.80" y="245.11" width="74.40" height="29.89" rx="2" fill="url(#spectrum)" opacity="0.95"/>
<rect x="642.80" y="266.74" width="74.40" height="8.26" rx="2" fill="url(#spectrum)" opacity="0.95"/>
<rect x="762.80" y="271.11" width="74.40" height="3.89" rx="2" fill="url(#spectrum)" opacity="0.95"/>
<text x="80" y="290" font-size="10" font-weight="400" fill="#656d76" text-anchor="middle" textLength="18.3" lengthAdjust="spacingAndGlyphs">Mon</text>
<text x="200" y="290" font-size="10" font-weight="400" fill="#656d76" text-anchor="middle" textLength="18.3" lengthAdjust="spacingAndGlyphs">Tue</text>
<text x="320" y="290" font-size="10" font-weight="400" fill="#656d76" text-anchor="middle" textLength="18.3" lengthAdjust="spacingAndGlyphs">Wed</text>
<text x="440" y="290" font-size="10" font-weight="400" fill="#656d76" text-anchor="middle" textLength="18.3" lengthAdjust="spacingAndGlyphs">Thu</text>
<text x="560" y="290" font-size="10" font-weight="400" fill="#656d76" text-anchor="middle" textLength="18.3" lengthAdjust="spacingAndGlyphs">Fri</text>
<text x="680" y="290" font-size="10" font-weight="400" fill="#656d76" text-anchor="middle" textLength="18.3" lengthAdjust="spacingAndGlyphs">Sat</text>
<text x="800" y="290" font-size="10" font-weight="400" fill="#656d76" text-anchor="middle" textLength="18.3" lengthAdjust="spacingAndGlyphs">Sun</text>
<text x="20" y="312" font-size="10" font-weight="400" fill="#656d76" text-anchor="start" textLength="658.8" lengthAdjust="spacingAndGlyphs">Aggregate across every repository. No repository names, commit messages or per-project timing are published.</text>
</svg>