<svg xmlns="http://www.w3.org/2000/svg" width="880" height="564" viewBox="0 0 880 564" role="img" aria-labelledby="title desc">
<title id="title">Embedded &amp; Firmware</title>
<desc id="desc">Project portfolio. Counts are total default-branch repository history, including other authors; they are not an individual performance score.</desc>
<style>text{font-family:ui-monospace,SFMono-Regular,Consolas,"Liberation Mono",monospace;letter-spacing:0}</style>
<defs><linearGradient id="gradient-emb"><stop stop-color="#10b981"/><stop offset=".5" stop-color="#0ea5e9"/><stop offset="1" stop-color="#6366f1"/></linearGradient>
<filter id="neon" filterUnits="userSpaceOnUse" x="0" y="0" width="880" height="564"><feGaussianBlur stdDeviation="0.6"/><feMerge><feMergeNode/><feMergeNode in="SourceGraphic"/></feMerge></filter></defs>
<rect x="0.5" y="0.5" width="879" height="563" rx="8" fill="#ffffff" stroke="#d0d7de"/>
<rect x="24" y="24" width="3" height="25" rx="1.5" fill="#0969da" filter="url(#neon)"/>
<text x="38" y="43" font-size="22" font-weight="600" fill="#0969da" text-anchor="start" textLength="254.98" lengthAdjust="spacingAndGlyphs">Embedded &amp; Firmware</text>
<text x="38" y="65" font-size="10" font-weight="400" fill="#536170" text-anchor="start" textLength="67.1" lengthAdjust="spacingAndGlyphs">04 PROJECTS</text>
<rect x="24" y="81" width="832" height="1.5" rx="0.75" fill="url(#gradient-emb)" filter="url(#neon)"/>
<text x="41" y="111" font-size="10" font-weight="600" fill="#536170" text-anchor="start" textLength="42.7" lengthAdjust="spacingAndGlyphs">PROJECT</text>
<text x="268" y="111" font-size="10" font-weight="600" fill="#536170" text-anchor="start" textLength="73.2" lengthAdjust="spacingAndGlyphs">WHAT IT DOES</text>
<text x="568" y="111" font-size="10" font-weight="600" fill="#536170" text-anchor="start" textLength="30.5" lengthAdjust="spacingAndGlyphs">STACK</text>
<text x="754" y="111" font-size="10" font-weight="600" fill="#536170" text-anchor="start" textLength="73.2" lengthAdjust="spacingAndGlyphs">REPO COMMITS</text>
<g transform="translate(0,0)"><g stroke="#536170" stroke-width="1.2" fill="none"><rect x="24" y="135" width="9" height="8" rx="1.5"/><path d="M25 135 v-3 a3 3 0 0 1 6 0 v3"/></g><text x="41" y="142" font-size="14" font-weight="600" fill="#1f2328" text-anchor="start" textLength="204.96" lengthAdjust="spacingAndGlyphs">Licensed game controller</text><text x="41" y="162" font-size="14" font-weight="600" fill="#1f2328" text-anchor="start" textLength="68.32" lengthAdjust="spacingAndGlyphs">firmware</text><text x="268" y="144" font-size="12.5" font-weight="400" fill="#536170" text-anchor="start" textLength="228.75" lengthAdjust="spacingAndGlyphs">USB XInput, BLE HID, dual-mode</text><text x="268" y="162" font-size="12.5" font-weight="400" fill="#536170" text-anchor="start" textLength="251.625" lengthAdjust="spacingAndGlyphs">pairing and USB audio on a single</text><text x="268" y="180" font-size="12.5" font-weight="400" fill="#536170" text-anchor="start" textLength="45.75" lengthAdjust="spacingAndGlyphs">device</text><rect x="568" y="129" width="24.71" height="22" rx="5" fill="#0969da" fill-opacity="0.12"/><text x="577" y="144" font-size="11" font-weight="500" fill="#0969da" text-anchor="start" textLength="6.71" lengthAdjust="spacingAndGlyphs">C</text><rect x="598.71" y="129" width="38.13" height="22" rx="5" fill="#0969da" fill-opacity="0.12"/><text x="607.71" y="144" font-size="11" font-weight="500" fill="#0969da" text-anchor="start" textLength="20.13" lengthAdjust="spacingAndGlyphs">BLE</text><rect x="642.84" y="129" width="64.97" height="22" rx="5" fill="#0969da" fill-opacity="0.12"/><text x="651.84" y="144" font-size="11" font-weight="500" fill="#0969da" text-anchor="start" textLength="46.97" lengthAdjust="spacingAndGlyphs">USB HID</text><rect x="754" y="154" width="58" height="7" rx="3.5" fill="#eaeef2" /><rect x="754" y="154" width="41.9737" height="7" rx="3.5" fill="url(#gradient-emb)" /><text x="856" y="162" font-size="13" font-weight="600" fill="#1f2328" text-anchor="end" textLength="23.79" lengthAdjust="spacingAndGlyphs">110</text><rect x="24" y="213" width="832" height="1" rx="0" fill="#eaeef2" /><g stroke="#536170" stroke-width="1.2" fill="none"><rect x="24" y="231" width="9" height="8" rx="1.5"/><path d="M25 231 v-3 a3 3 0 0 1 6 0 v3"/></g><text x="41" y="238" font-size="14" font-weight="600" fill="#1f2328" text-anchor="start" textLength="145.18" lengthAdjust="spacingAndGlyphs">Ultra-low-latency</text><text x="41" y="258" font-size="14" font-weight="600" fill="#1f2328" text-anchor="start" textLength="170.8" lengthAdjust="spacingAndGlyphs">wireless HID &amp; audio</text><text x="268" y="240" font-size="12.5" font-weight="400" fill="#536170" text-anchor="start" textLength="221.125" lengthAdjust="spacingAndGlyphs">The latency-critical path for</text><text x="268" y="258" font-size="12.5" font-weight="400" fill="#536170" text-anchor="start" textLength="236.375" lengthAdjust="spacingAndGlyphs">wireless input and audio: radio</text><text x="268" y="276" font-size="12.5" font-weight="400" fill="#536170" text-anchor="start" textLength="251.625" lengthAdjust="spacingAndGlyphs">scheduling, buffering and latency</text><text x="268" y="294" font-size="12.5" font-weight="400" fill="#536170" text-anchor="start" textLength="61" lengthAdjust="spacingAndGlyphs">analysis</text><rect x="568" y="225" width="24.71" height="22" rx="5" fill="#0969da" fill-opacity="0.12"/><text x="577" y="240" font-size="11" font-weight="500" fill="#0969da" text-anchor="start" textLength="6.71" lengthAdjust="spacingAndGlyphs">C</text><rect x="598.71" y="225" width="38.13" height="22" rx="5" fill="#0969da" fill-opacity="0.12"/><text x="607.71" y="240" font-size="11" font-weight="500" fill="#0969da" text-anchor="start" textLength="20.13" lengthAdjust="spacingAndGlyphs">BLE</text><rect x="642.84" y="225" width="44.84" height="22" rx="5" fill="#0969da" fill-opacity="0.12"/><text x="651.84" y="240" font-size="11" font-weight="500" fill="#0969da" text-anchor="start" textLength="26.84" lengthAdjust="spacingAndGlyphs">RTOS</text><rect x="754" y="250" width="58" height="7" rx="3.5" fill="#eaeef2" /><rect x="754" y="250" width="31.2895" height="7" rx="3.5" fill="url(#gradient-emb)" /><text x="856" y="258" font-size="13" font-weight="600" fill="#1f2328" text-anchor="end" textLength="15.86" lengthAdjust="spacingAndGlyphs">82</text><rect x="24" y="327" width="832" height="1" rx="0" fill="#eaeef2" /><g stroke="#536170" stroke-width="1.2" fill="none"><rect x="24" y="345" width="9" height="8" rx="1.5"/><path d="M25 345 v-3 a3 3 0 0 1 6 0 v3"/></g><text x="41" y="352" font-size="14" font-weight="600" fill="#1f2328" text-anchor="start" textLength="128.1" lengthAdjust="spacingAndGlyphs">Audio codec DSP</text><text x="41" y="372" font-size="14" font-weight="600" fill="#1f2328" text-anchor="start" textLength="93.94" lengthAdjust="spacingAndGlyphs">development</text><text x="268" y="354" font-size="12.5" font-weight="400" fill="#536170" text-anchor="start" textLength="266.875" lengthAdjust="spacingAndGlyphs">Opus and LC3 codec development on a</text><text x="268" y="372" font-size="12.5" font-weight="400" fill="#536170" text-anchor="start" textLength="228.75" lengthAdjust="spacingAndGlyphs">resource-constrained DSP core,</text><text x="268" y="390" font-size="12.5" font-weight="400" fill="#536170" text-anchor="start" textLength="213.5" lengthAdjust="spacingAndGlyphs">optimised at the cycle level</text><rect x="568" y="339" width="24.71" height="22" rx="5" fill="#0969da" fill-opacity="0.12"/><text x="577" y="354" font-size="11" font-weight="500" fill="#0969da" text-anchor="start" textLength="6.71" lengthAdjust="spacingAndGlyphs">C</text><rect x="598.71" y="339" width="71.68" height="22" rx="5" fill="#0969da" fill-opacity="0.12"/><text x="607.71" y="354" font-size="11" font-weight="500" fill="#0969da" text-anchor="start" textLength="53.68" lengthAdjust="spacingAndGlyphs">Assembly</text><rect x="676.39" y="339" width="38.13" height="22" rx="5" fill="#0969da" fill-opacity="0.12"/><text x="685.39" y="354" font-size="11" font-weight="500" fill="#0969da" text-anchor="start" textLength="20.13" lengthAdjust="spacingAndGlyphs">DSP</text><rect x="754" y="364" width="58" height="7" rx="3.5" fill="#eaeef2" /><text x="856" y="372" font-size="13" font-weight="600" fill="#1f2328" text-anchor="end" textLength="23.79" lengthAdjust="spacingAndGlyphs">n/a</text><rect x="24" y="423" width="832" height="1" rx="0" fill="#eaeef2" /><g stroke="#536170" stroke-width="1.2" fill="none"><rect x="24" y="441" width="9" height="8" rx="1.5"/><path d="M25 441 v-3 a3 3 0 0 1 6 0 v3"/></g><text x="41" y="448" font-size="14" font-weight="600" fill="#1f2328" text-anchor="start" textLength="153.72" lengthAdjust="spacingAndGlyphs">Wireless ESL / EPD</text><text x="41" y="468" font-size="14" font-weight="600" fill="#1f2328" text-anchor="start" textLength="59.78" lengthAdjust="spacingAndGlyphs">display</text><text x="268" y="450" font-size="12.5" font-weight="400" fill="#536170" text-anchor="start" textLength="213.5" lengthAdjust="spacingAndGlyphs">Firmware for battery-powered</text><text x="268" y="468" font-size="12.5" font-weight="400" fill="#536170" text-anchor="start" textLength="236.375" lengthAdjust="spacingAndGlyphs">electronic shelf labels driving</text><text x="268" y="486" font-size="12.5" font-weight="400" fill="#536170" text-anchor="start" textLength="266.875" lengthAdjust="spacingAndGlyphs">e-paper panels over a wireless link</text><rect x="568" y="435" width="24.71" height="22" rx="5" fill="#0969da" fill-opacity="0.12"/><text x="577" y="450" font-size="11" font-weight="500" fill="#0969da" text-anchor="start" textLength="6.71" lengthAdjust="spacingAndGlyphs">C</text><rect x="598.71" y="435" width="64.97" height="22" rx="5" fill="#0969da" fill-opacity="0.12"/><text x="607.71" y="450" font-size="11" font-weight="500" fill="#0969da" text-anchor="start" textLength="46.97" lengthAdjust="spacingAndGlyphs">e-paper</text><rect x="669.68" y="435" width="38.13" height="22" rx="5" fill="#0969da" fill-opacity="0.12"/><text x="678.68" y="450" font-size="11" font-weight="500" fill="#0969da" text-anchor="start" textLength="20.13" lengthAdjust="spacingAndGlyphs">BLE</text><rect x="754" y="460" width="58" height="7" rx="3.5" fill="#eaeef2" /><rect x="754" y="460" width="14.1184" height="7" rx="3.5" fill="url(#gradient-emb)" /><text x="856" y="468" font-size="13" font-weight="600" fill="#1f2328" text-anchor="end" textLength="15.86" lengthAdjust="spacingAndGlyphs">37</text></g></svg>