<svg xmlns="http://www.w3.org/2000/svg" width="880" height="330" viewBox="0 0 880 330">
<defs>
<linearGradient id="g-emb-dark" x1="0" y1="0" x2="1" y2="0">
<stop offset="0%" stop-color="#10b981"/>
<stop offset="55%" stop-color="#0ea5e9"/>
<stop offset="100%" stop-color="#6366f1"/>
</linearGradient>
</defs>
<style>text{font-family:-apple-system,BlinkMacSystemFont,'Segoe UI',Helvetica,Arial,sans-serif}.ti{font-size:15px;font-weight:600;fill:#38bdf8}.hd{font-size:9.5px;font-weight:600;fill:#6e7681;letter-spacing:.9px}.nm{font-size:12.5px;font-weight:600;fill:#e6edf3}.ds{font-size:11px;fill:#8b949e}.ch{font-size:10px;font-weight:500;fill:#38bdf8}.nu{font-size:12px;font-weight:600;fill:#e6edf3}</style>
<rect x="0.5" y="0.5" width="879" height="329" rx="8" fill="#0d1117" stroke="#30363d"/>
<rect x="20" y="30" width="4" height="16" rx="2" fill="#38bdf8"/>
<text class="ti" x="34" y="43">Embedded &amp; Firmware</text>
<rect x="20" y="46" width="840" height="1.5" rx="0.75" fill="url(#g-emb-dark)"/>
<text class="hd" x="20" y="58">PROJECT</text>
<text class="hd" x="235" y="58">WHAT IT DOES</text>
<text class="hd" x="540" y="58">STACK</text>
<text class="hd" x="720" y="58">COMMITS</text>
<text class="nm" x="20" y="91.0">Licensed game controller</text>
<text class="nm" x="20" y="107.0">firmware</text>
<g fill="none" stroke="#6e7681" stroke-width="1.1"><rect x="82.5" y="100.0" width="7" height="5.5" rx="1.2" fill="#6e7681" stroke="none"/><path d="M83.9 100.0 v-1.6 a2.1 2.1 0 0 1 4.2 0 V100.0"/></g>
<text class="ds" x="235" y="90.0">USB XInput, BLE HID, dual-mode pairing and USB</text>
<text class="ds" x="235" y="104.0">audio on a single device</text>
<rect x="540.0" y="86.5" width="21.3" height="19" rx="9.5" fill="#38bdf8" fill-opacity="0.18"/>
<text class="ch" x="548.0" y="99.5">C</text>
<rect x="566.3" y="86.5" width="31.9" height="19" rx="9.5" fill="#38bdf8" fill-opacity="0.18"/>
<text class="ch" x="574.3" y="99.5">BLE</text>
<rect x="603.2" y="86.5" width="53.1" height="19" rx="9.5" fill="#38bdf8" fill-opacity="0.18"/>
<text class="ch" x="611.2" y="99.5">USB HID</text>
<rect x="720" y="92.5" width="94" height="7" rx="3.5" fill="#21262d"/>
<rect x="720" y="92.5" width="92.3" height="7" rx="3.5" fill="url(#g-emb-dark)"/>
<text class="nu" x="860" y="100.0" text-anchor="end">110</text>
<rect x="20" y="118.0" width="840" height="1" fill="#21262d"/>
<text class="nm" x="20" y="147.0">Ultra-low-latency wireless</text>
<text class="nm" x="20" y="163.0">HID &amp; audio</text>
<g fill="none" stroke="#6e7681" stroke-width="1.1"><rect x="104.1" y="156.0" width="7" height="5.5" rx="1.2" fill="#6e7681" stroke="none"/><path d="M105.5 156.0 v-1.6 a2.1 2.1 0 0 1 4.2 0 V156.0"/></g>
<text class="ds" x="235" y="146.0">The latency-critical path for wireless input and</text>
<text class="ds" x="235" y="160.0">audio: radio scheduling and buffering tuned</text>
<text class="ds" x="235" y="174.0">until the lag stops being perceptible</text>
<rect x="540.0" y="147.5" width="21.3" height="19" rx="9.5" fill="#38bdf8" fill-opacity="0.18"/>
<text class="ch" x="548.0" y="160.5">C</text>
<rect x="566.3" y="147.5" width="31.9" height="19" rx="9.5" fill="#38bdf8" fill-opacity="0.18"/>
<text class="ch" x="574.3" y="160.5">BLE</text>
<rect x="603.2" y="147.5" width="37.2" height="19" rx="9.5" fill="#38bdf8" fill-opacity="0.18"/>
<text class="ch" x="611.2" y="160.5">RTOS</text>
<rect x="720" y="153.5" width="94" height="7" rx="3.5" fill="#21262d"/>
<rect x="720" y="153.5" width="68.8" height="7" rx="3.5" fill="url(#g-emb-dark)"/>
<text class="nu" x="860" y="161.0" text-anchor="end">82</text>
<rect x="20" y="184.0" width="840" height="1" fill="#21262d"/>
<text class="nm" x="20" y="213.0">Audio codec DSP</text>
<text class="nm" x="20" y="229.0">development</text>
<g fill="none" stroke="#6e7681" stroke-width="1.1"><rect x="104.1" y="222.0" width="7" height="5.5" rx="1.2" fill="#6e7681" stroke="none"/><path d="M105.5 222.0 v-1.6 a2.1 2.1 0 0 1 4.2 0 V222.0"/></g>
<text class="ds" x="235" y="212.0">Opus and LC3 codec development on a</text>
<text class="ds" x="235" y="226.0">resource-constrained DSP core, optimised at the</text>
<text class="ds" x="235" y="240.0">cycle level</text>
<rect x="540.0" y="213.5" width="21.3" height="19" rx="9.5" fill="#38bdf8" fill-opacity="0.18"/>
<text class="ch" x="548.0" y="226.5">C</text>
<rect x="566.3" y="213.5" width="58.4" height="19" rx="9.5" fill="#38bdf8" fill-opacity="0.18"/>
<text class="ch" x="574.3" y="226.5">Assembly</text>
<rect x="629.7" y="213.5" width="31.9" height="19" rx="9.5" fill="#38bdf8" fill-opacity="0.18"/>
<text class="ch" x="637.7" y="226.5">DSP</text>
<rect x="720" y="219.5" width="94" height="7" rx="3.5" fill="#21262d"/>
<text class="nu" x="860" y="227.0" text-anchor="end" fill="#6e7681">&#8212;</text>
<rect x="20" y="250.0" width="840" height="1" fill="#21262d"/>
<text class="nm" x="20" y="279.0">Wireless ESL / EPD display</text>
<g fill="none" stroke="#6e7681" stroke-width="1.1"><rect x="211.9" y="272.0" width="7" height="5.5" rx="1.2" fill="#6e7681" stroke="none"/><path d="M213.3 272.0 v-1.6 a2.1 2.1 0 0 1 4.2 0 V272.0"/></g>
<text class="ds" x="235" y="278.0">Firmware for battery-powered electronic shelf</text>
<text class="ds" x="235" y="292.0">labels driving e-paper panels over a wireless</text>
<text class="ds" x="235" y="306.0">link</text>
<rect x="540.0" y="279.5" width="21.3" height="19" rx="9.5" fill="#38bdf8" fill-opacity="0.18"/>
<text class="ch" x="548.0" y="292.5">C</text>
<rect x="566.3" y="279.5" width="53.1" height="19" rx="9.5" fill="#38bdf8" fill-opacity="0.18"/>
<text class="ch" x="574.3" y="292.5">e-paper</text>
<rect x="624.4" y="279.5" width="31.9" height="19" rx="9.5" fill="#38bdf8" fill-opacity="0.18"/>
<text class="ch" x="632.4" y="292.5">BLE</text>
<rect x="720" y="285.5" width="94" height="7" rx="3.5" fill="#21262d"/>
<rect x="720" y="285.5" width="31.1" height="7" rx="3.5" fill="url(#g-emb-dark)"/>
<text class="nu" x="860" y="293.0" text-anchor="end">37</text>
</svg>